<svg width="20" height="20" viewBox="0 0 20 20" fill="none" xmlns="http://www.w3.org/2000/svg">
<g clip-path="url(#clip0)">
<path d="M19.3239 3.93995L13.264 10.0005L19.3239 16.0607C20.2253 16.9624 20.2253 18.4231 19.3239 19.3248C18.8735 19.7751 18.283 20.0005 17.6928 20.0005C17.1017 20.0005 16.5112 19.7755 16.0611 19.3248L9.99992 13.2639L3.93917 19.3247C3.48885 19.7751 2.89833 20.0005 2.30763 20.0005C1.7171 20.0005 1.12697 19.7754 0.676257 19.3247C-0.225122 18.4234 -0.225122 16.9627 0.676257 16.0606L6.73598 10.0004L0.675912 3.93995C-0.225467 3.03857 -0.225467 1.57756 0.675912 0.676187C1.57712 -0.2245 3.03727 -0.2245 3.93882 0.676187L9.99986 6.73669L16.0604 0.676187C16.9622 -0.2245 18.4225 -0.2245 19.3235 0.676187C20.2253 1.57756 20.2253 3.03857 19.3239 3.93995Z" fill="#CCCCCC"/>
</g>
<defs>
<clipPath id="clip0">
<rect width="20" height="20" fill="white"/>
</clipPath>
</defs>
</svg>
