<svg width="19" height="19" viewBox="0 0 19 19" fill="none" xmlns="http://www.w3.org/2000/svg">
<g clip-path="url(#clip0)">
<path d="M9.5 0.395813C4.25125 0.395813 0 4.57581 0 9.73115C0 13.8565 2.72175 17.3549 6.49563 18.5883C6.97062 18.6762 7.14479 18.3872 7.14479 18.1394C7.14479 17.9178 7.13688 17.3304 7.13292 16.5521C4.49033 17.115 3.933 15.2997 3.933 15.2997C3.50075 14.2223 2.87613 13.9341 2.87613 13.9341C2.01558 13.3554 2.94263 13.3673 2.94263 13.3673C3.89658 13.4322 4.39771 14.3291 4.39771 14.3291C5.24479 15.7565 6.6215 15.3441 7.16458 15.1058C7.25008 14.5017 7.49471 14.0909 7.76625 13.8573C5.65646 13.6238 3.439 12.821 3.439 9.24427C3.439 8.2254 3.80713 7.39256 4.41671 6.73944C4.30983 6.50352 3.98921 5.55431 4.49983 4.26865C4.49983 4.26865 5.29546 4.01848 7.11233 5.22577C7.87233 5.01835 8.67983 4.91544 9.48733 4.91069C10.2948 4.91544 11.1023 5.01835 11.8623 5.22577C13.6673 4.01848 14.463 4.26865 14.463 4.26865C14.9736 5.55431 14.653 6.50352 14.558 6.73944C15.1636 7.39256 15.5317 8.2254 15.5317 9.24427C15.5317 12.8305 13.3111 13.6198 11.1973 13.8494C11.5298 14.1296 11.8386 14.702 11.8386 15.5768C11.8386 16.8261 11.8267 17.8299 11.8267 18.1331C11.8267 18.3777 11.993 18.6699 12.4798 18.5764C16.2806 17.3509 19 13.8502 19 9.73115C19 4.57581 14.7464 0.395813 9.5 0.395813Z" fill="#333333"/>
</g>
<defs>
<clipPath id="clip0">
<rect width="19" height="19" fill="white"/>
</clipPath>
</defs>
</svg>
