<svg width="22" height="22" viewBox="0 0 22 22" fill="none" xmlns="http://www.w3.org/2000/svg">
<path d="M11 20.668C10.8483 20.668 10.6972 20.6151 10.5758 20.5087C9.63793 19.6886 8.74603 18.9282 7.90702 18.2132C3.17182 14.178 0 11.5117 0 7.62755C0 4.03855 2.53675 1.33203 5.84375 1.33203C8.45019 1.33203 10.1232 3.15296 11 4.79261C11.8768 3.15296 13.5498 1.33203 16.1562 1.33203C19.4633 1.33203 22 4.03855 22 7.62755C22 11.5118 18.8282 14.178 14.093 18.2132C13.254 18.9282 12.3621 19.6886 11.4242 20.5087C11.3028 20.6151 11.1517 20.668 11 20.668Z" fill="#FD3018"/>
<path d="M11.4242 20.5087C12.3621 19.6886 13.254 18.9282 14.093 18.2132C18.8282 14.178 22 11.5117 22 7.62755C22 4.03855 19.4633 1.33203 16.1562 1.33203C13.5498 1.33203 11.8768 3.15296 11 4.79261V20.668C11.1517 20.668 11.3028 20.6151 11.4242 20.5087Z" fill="#E61E14"/>
</svg>
