<svg width="119" height="32" viewBox="0 0 119 32" fill="none" xmlns="http://www.w3.org/2000/svg">
<path d="M4.97784 17.1436L13.0576 20.8678V27.0816L0 19.7951L0 14.4111L13.0576 7.1246V13.3182L4.97784 17.1436Z" fill="white"/>
<path d="M17.8434 32H14.3131L21.6544 0L25.1994 0L17.8434 32Z" fill="white"/>
<path d="M35.0517 17.0829L27.0162 13.3384V7.14485L40 14.4314V19.8153L27.0162 27.1018V20.9083L35.0517 17.0829Z" fill="white"/>
<path d="M58.7188 25.2461C57.6953 25.2461 56.8203 24.9883 56.0938 24.4727C55.3672 23.957 54.8086 23.2383 54.418 22.3164C54.0352 21.3867 53.8438 20.3047 53.8438 19.0703V18.8242C53.8438 17.4805 54.0352 16.3047 54.418 15.2969C54.8086 14.2812 55.3672 13.4922 56.0938 12.9297C56.8203 12.3672 57.6914 12.0859 58.707 12.0859C59.4336 12.0859 60.0664 12.2266 60.6055 12.5078C61.1523 12.7812 61.6211 13.1758 62.0117 13.6914V8.88672L60.1484 8.53516V6.71875H64.9648V22.8438L66.7227 23.1953V25H62.4102L62.1758 23.4648C61.3555 24.6523 60.2031 25.2461 58.7188 25.2461ZM59.5508 22.9141C60.1133 22.9141 60.5977 22.7891 61.0039 22.5391C61.4102 22.2891 61.7461 21.9336 62.0117 21.4727V15.8828C61.7539 15.4219 61.418 15.0625 61.0039 14.8047C60.5977 14.5469 60.1211 14.418 59.5742 14.418C58.6133 14.418 57.9102 14.8242 57.4648 15.6367C57.0195 16.4492 56.7969 17.5117 56.7969 18.8242V19.0703C56.7969 20.2422 57.0117 21.1758 57.4414 21.8711C57.8789 22.5664 58.582 22.9141 59.5508 22.9141ZM73.9414 25.2461C72.7383 25.2461 71.6953 24.9805 70.8125 24.4492C69.9297 23.9102 69.2422 23.168 68.75 22.2227C68.2656 21.2773 68.0234 20.1953 68.0234 18.9766V18.4844C68.0234 17.25 68.2617 16.1523 68.7383 15.1914C69.2227 14.2227 69.8828 13.4648 70.7188 12.918C71.5625 12.3633 72.5273 12.0859 73.6133 12.0859C75.3242 12.0859 76.625 12.5938 77.5156 13.6094C78.4141 14.625 78.8633 16.0195 78.8633 17.793V19.4805H71.082L71.0586 19.5391C71.1055 20.5391 71.3945 21.3633 71.9258 22.0117C72.457 22.6523 73.2148 22.9727 74.1992 22.9727C74.8867 22.9727 75.5117 22.8789 76.0742 22.6914C76.6367 22.5039 77.1602 22.2383 77.6445 21.8945L78.5586 23.7461C78.0586 24.1758 77.4219 24.5352 76.6484 24.8242C75.8828 25.1055 74.9805 25.2461 73.9414 25.2461ZM71.1289 17.4062H76.0391V17.1016C76.0391 16.2734 75.8438 15.6016 75.4531 15.0859C75.0703 14.5703 74.4688 14.3125 73.6484 14.3125C72.9297 14.3125 72.3477 14.6016 71.9023 15.1797C71.4648 15.7578 71.1953 16.4805 71.0938 17.3477L71.1289 17.4062ZM85.2031 25L81.0898 14.3359L79.7422 14.1367V12.3203H85.543V14.1367L84.0781 14.3711L86.3633 20.7344L86.668 21.7422H86.7383L87.0898 20.7344L89.3984 14.3711L87.793 14.1367V12.3203H93.582V14.1367L92.1992 14.3477L88.0742 25H85.2031ZM99.6172 25L95.5039 14.3359L94.1562 14.1367V12.3203H99.957V14.1367L98.4922 14.3711L100.777 20.7344L101.082 21.7422H101.152L101.504 20.7344L103.812 14.3711L102.207 14.1367V12.3203H107.996V14.1367L106.613 14.3477L102.488 25H99.6172ZM109.227 25V23.1953L110.973 22.8438V14.4883L109.121 14.1367V12.3203H113.691L113.844 13.9141L113.867 14.1719C114.547 12.7812 115.531 12.0859 116.82 12.0859C117.305 12.0859 117.738 12.1484 118.121 12.2734L117.781 15.0039L116.129 14.9102C115.59 14.8789 115.145 14.9844 114.793 15.2266C114.441 15.4688 114.152 15.8047 113.926 16.2344V22.8438L115.684 23.1953V25H109.227Z" fill="white"/>
</svg>
